{"title":"Love.at.First.Hiccup.2009.DVDRip.XVID.FEEL-FREE","uid":6831095,"size":876160653,"categoryP":"video","categoryS":"movies","magnet":"?xt=urn:btih:a072b8aa8cf52241057e6f5ab0d28eea9dadd025&amp;dn=Love.at.First.Hiccup.2009.DVDRip.XVID.FEEL-FREE&amp;tr=udp%3A%2F%2Ftracker.openbittorrent.com%3A80&amp;tr=udp%3A%2F%2Fopen.demonii.com%3A1337&amp;tr=udp%3A%2F%2Ftracker.coppersurfer.tk%3A6969&amp;tr=udp%3A%2F%2Fexodus.desync.com%3A6969","seeders":0,"leechers":1,"uploader":"sceneline","files":10,"time":1321834589,"description":"- &lt;a href=&quot;\nhttp://www.Speed.Cd&quot; rel=&quot;nofollow&quot; target=&quot;_NEW&quot;&gt;\nhttp://www.Speed.Cd&lt;/a&gt;      fast  and The Hottest Private Tracker on the net\n\n   signup is open now\n\nPlease Seed back to make the speed Faster!!!\n\n------------------nfo--------------------------\n-Genre:Comedy \nLanguage:English\nIMDb:http://www.imdb.com/title/tt1307065/\nSource:DVD\nSample:YES\n...........................................\nGeneral\nComplete name                    : Love.at.First.Hiccup.2009.DVDRip.XVID.FEEL-FREE\nFormat                           : AVI\nFormat/Info                      : Audio Video Interleave\nFile size                        : 823 MiB\nDuration                         : 1h 25mn\nOverall bit rate                 : 1 341 Kbps\n...........................................\nVideo\nFormat                           : xvid\nCodec ID                         : xvid\nDuration                         : 1h 25mn\nBit rate                         : 1 200 Kbps\nWidth                            : 720 pixels\nHeight                           : 304 pixels\nDisplay aspect ratio             : 2.35:1\nFrame rate                       : 25.000 fps\nResolution                       : 24 bits\nBits/(Pixel*Frame)               : 0.219\nStream size                      : 737 MiB (89%)\n...........................................\nAudio\nID                               : 1\nFormat                           : MPEG Audio\nFormat version                   : Version 1\nFormat profile                   : Layer 3\nFormat settings, Mode            : Joint stereo / MS Stereo\nCodec ID                         : 55\nCodec ID/Hint                    : MP3\nDuration                         : 1h 25mn\nBit rate mode                    : Constant\nBit rate                         : 128 Kbps\nChannel(s)                       : 2 channels\nSampling rate                    : 48.0 KHz\nResolution                       : 16 bits\nStream size                      : 78.6 MiB (10%)\nAlignment                        : Aligned on interleaves\nInterleave, duration             : 24 ms (0.60 video frame)\nInterleave, preload duration     : 24 ms\nWriting library                  : LAME3.97\n............................................\nPlot:\n   A high school romantic comedy about freshman Victor who has contracted a case of Anya-itis, (acute and incurable love passion for high school senior Anja.) And why shouldn't he?\n...................................................\n","torrent":{"xt":"urn:btih:a072b8aa8cf52241057e6f5ab0d28eea9dadd025","amp;dn":"Love.at.First.Hiccup.2009.DVDRip.XVID.FEEL-FREE","amp;tr":["udp%3A%2F%2Ftracker.openbittorrent.com%3A80","udp%3A%2F%2Fopen.demonii.com%3A1337","udp%3A%2F%2Ftracker.coppersurfer.tk%3A6969","udp%3A%2F%2Fexodus.desync.com%3A6969"],"infoHash":"a072b8aa8cf52241057e6f5ab0d28eea9dadd025","infoHashBuffer":{"type":"Buffer","data":[160,114,184,170,140,245,34,65,5,126,111,90,176,210,142,234,157,173,208,37]},"announce":[],"urlList":[]}}